<svg width="140" height="47" viewBox="0 0 140 47" fill="none" xmlns="http://www.w3.org/2000/svg">
<path d="M28.8 0.899902V3.7999H42.3V17.3999H45.2001V0.899902H28.8Z" fill="#F7A520"/>
<path d="M16.7999 0.899902H0.399902V17.3999H3.2999V3.7999H16.7999V0.899902Z" fill="#3BBFED"/>
<path d="M16.7999 42.9999H3.2999V29.3999H0.399902V45.8999H16.7999V42.9999Z" fill="#492771"/>
<path d="M42.3 29.3999V42.9999H28.8V45.8999H45.2001V29.3999H42.3Z" fill="#C0398D"/>
<path d="M57.8 0.899902H62.1C62.9 0.899902 63.8 0.999902 64.6 1.3999C65.4 1.6999 66 2.0999 66.6 2.5999C67.1 3.1999 67.6001 3.7999 67.9001 4.4999C68.2001 5.2999 68.3001 6.0999 68.3001 6.8999C68.3001 7.6999 68.2001 8.4999 67.9001 9.2999C67.6001 9.9999 67.1 10.6999 66.6 11.1999C66 11.6999 65.3 12.1999 64.6 12.4999C63.8 12.7999 63 12.8999 62.1 12.8999H57.8V0.899902ZM60.7001 3.5999V10.1999H62C62.5 10.1999 63.0001 10.1999 63.4001 9.9999C63.8001 9.7999 64.2 9.5999 64.5 9.2999C64.8 8.9999 65 8.5999 65.2 8.1999C65.4 7.7999 65.4001 7.3999 65.4001 6.8999C65.4001 6.4999 65.4 5.9999 65.2 5.5999C65.1 5.1999 64.8 4.7999 64.5 4.4999C64.2 4.1999 63.8001 3.9999 63.4001 3.7999C63.0001 3.5999 62.5 3.5999 62 3.5999H60.7001Z" fill="#1E1E1C"/>
<path d="M70.1001 0.899902H73.0001V12.8999H70.1001V0.899902Z" fill="#1E1E1C"/>
<path d="M81 13.1002C80.1 13.1002 79.3 12.9002 78.4 12.6002C77.7 12.3002 77 11.8002 76.4 11.2002C75.9 10.7002 75.5 10.0002 75.2 9.3002C74.9 8.5002 74.8 7.7002 74.8 6.9002C74.8 6.1002 74.9 5.2002 75.2 4.5002C75.5 3.7002 75.9 3.1002 76.5 2.5002C77 2.0002 77.7 1.5002 78.4 1.2002C79.3 0.900195 80.3 0.700195 81.2 0.700195C82.1 0.800195 83.1 1.0002 83.9 1.4002C84.8 1.8002 85.5 2.4002 86.1 3.2002L83.7 4.9002C83.4 4.4002 83 4.1002 82.5 3.8002C82 3.6002 81.5 3.4002 80.9 3.5002C80.5 3.5002 80 3.5002 79.6 3.7002C79.2 3.9002 78.9 4.1002 78.6 4.4002C78.3 4.8002 78 5.1002 77.9 5.5002C77.7 6.0002 77.6 6.4002 77.6 6.9002C77.6 7.4002 77.7 7.9002 77.9 8.3002C78 8.7002 78.3 9.1002 78.6 9.4002C78.9 9.7002 79.2 9.9002 79.6 10.1002C80.1 10.3002 80.5 10.4002 81 10.4002C81.6 10.4002 82.2 10.2002 82.7 9.9002C83.2 9.5002 83.6 9.0002 83.8 8.5002H80.4V5.8002H86.9V7.2002C86.9 8.0002 86.7 8.7002 86.5 9.5002C86.2 10.2002 85.8 10.8002 85.3 11.3002C84.8 11.9002 84.1 12.3002 83.4 12.6002C82.7 12.9002 81.9 13.1002 81 13.1002Z" fill="#1E1E1C"/>
<path d="M88.7 0.899902H91.6V12.8999H88.7V0.899902Z" fill="#1E1E1C"/>
<path d="M96.3 3.4999H93V0.899902H102.3V3.4999H99V12.8999H96.2L96.3 3.4999Z" fill="#1E1E1C"/>
<path d="M106.1 0.899902H108.9L113.3 12.8999H110.4L109.8 11.0999H105.2L104.6 12.8999H101.7L106.1 0.899902ZM106.1 8.5999H108.9L107.5 4.5999L106.1 8.5999Z" fill="#1E1E1C"/>
<path d="M114.5 0.899902H117.3V10.1999H122.5V12.8999H114.5V0.899902Z" fill="#1E1E1C"/>
<path d="M57.8 17.3999H62.6C63.3 17.3999 63.9 17.4999 64.5 17.6999C65.1 17.8999 65.6 18.2999 66 18.6999C66.4 19.0999 66.7001 19.5999 66.9001 20.0999C67.4001 21.1999 67.4001 22.4999 66.9001 23.5999C66.7001 24.0999 66.4 24.5999 66 24.9999C65.6 25.3999 65.1 25.7999 64.5 25.9999C63.9 26.2999 63.3 26.3999 62.6 26.3999H60.7001V29.3999H57.8V17.3999ZM60.7001 19.9999V23.6999H62.5C62.7 23.6999 63.0001 23.6999 63.2001 23.5999C63.4001 23.4999 63.6 23.3999 63.8 23.1999C64 22.9999 64.1 22.7999 64.2 22.5999C64.3 22.2999 64.4001 22.0999 64.3001 21.7999C64.4001 21.5999 64.3 21.2999 64.2 21.0999C64.1 20.8999 64 20.6999 63.8 20.4999C63.6 20.2999 63.4001 20.1999 63.2001 20.0999C63.0001 19.9999 62.7 19.9999 62.5 19.9999H60.7001Z" fill="#1E1E1C"/>
<path d="M68.8 17.3999H74C74.6 17.3999 75.3 17.4999 75.9 17.6999C76.4 17.8999 76.9 18.1999 77.3 18.5999C77.7 18.9999 78 19.3999 78.2 19.8999C78.4 20.3999 78.5 20.9999 78.5 21.4999C78.5 22.1999 78.3 22.9999 77.9 23.5999C77.6 24.1999 77.1 24.6999 76.5 25.0999L78.8 29.3999H75.6L73.9 25.7999H71.7V29.3999H68.8V17.3999ZM71.7 19.9999V23.1999H73.7C74 23.1999 74.2 23.1999 74.5 23.0999C74.7 22.9999 74.9 22.8999 75.1 22.6999C75.4 22.3999 75.5 21.9999 75.5 21.5999C75.5 21.2999 75.5 21.0999 75.4 20.8999C75.4 20.6999 75.2 20.5999 75.1 20.3999C74.7 20.0999 74.2 19.9999 73.7 19.9999H71.7Z" fill="#1E1E1C"/>
<path d="M85.8 29.5002C85 29.6002 84.2 29.4002 83.4 29.1002C82.3 28.6002 81.4 27.8002 80.7 26.8002C80 25.8002 79.7 24.6002 79.7 23.4002C79.7 22.6002 79.8 21.7002 80.2 21.0002C80.5 20.3002 80.9 19.6002 81.5 19.0002C82 18.5002 82.7 18.0002 83.4 17.7002C84.2 17.4002 85 17.2002 85.8 17.2002C86.6 17.2002 87.5 17.4002 88.2 17.7002C88.9 18.0002 89.6 18.5002 90.2 19.0002C90.7 19.6002 91.2 20.2002 91.5 21.0002C91.8 21.7002 92 22.6002 92 23.4002C92 24.2002 91.8 25.0002 91.5 25.7002C91.2 26.5002 90.7 27.2002 90.2 27.8002C89.6 28.3002 89 28.8002 88.2 29.1002C87.5 29.4002 86.6 29.6002 85.8 29.5002ZM85.8 26.7002C86.3 26.7002 86.7 26.6002 87.1 26.4002C87.5 26.3002 87.9 26.0002 88.1 25.7002C88.4 25.4002 88.7 25.1002 88.8 24.7002C89 24.3002 89.1 23.8002 89.1 23.4002C89.1 22.5002 88.8 21.6002 88.1 21.0002C87.8 20.7002 87.5 20.4002 87.1 20.3002C86.7 20.1002 86.3 20.0002 85.8 20.0002C85.4 20.0002 84.9 20.1002 84.5 20.3002C84.1 20.4002 83.8 20.7002 83.5 21.0002C83.2 21.3002 83 21.7002 82.8 22.1002C82.7 22.5002 82.6 22.9002 82.6 23.4002C82.6 23.8002 82.7 24.3002 82.8 24.7002C83 25.1002 83.2 25.4002 83.5 25.7002C83.8 26.0002 84.1 26.3002 84.5 26.4002C84.9 26.6002 85.4 26.7002 85.8 26.7002Z" fill="#1E1E1C"/>
<path d="M93.7 17.3999H98C98.8 17.3999 99.7 17.4999 100.5 17.7999C101.2 18.0999 101.9 18.4999 102.5 19.0999C103 19.5999 103.4 20.2999 103.7 20.9999C104 21.6999 104.2 22.5999 104.2 23.3999C104.2 24.1999 104 24.9999 103.7 25.7999C103.4 26.4999 103 27.0999 102.4 27.6999C101.9 28.1999 101.2 28.5999 100.5 28.8999C99.7 29.1999 98.8 29.3999 98 29.3999H93.7V17.3999ZM96.6 19.9999V26.6999H97.9C98.4 26.6999 98.8 26.5999 99.3 26.3999C99.7 26.2999 100.1 25.9999 100.4 25.6999C100.7 25.3999 100.9 25.0999 101.1 24.6999C101.2 24.2999 101.3 23.7999 101.3 23.3999C101.3 22.8999 101.2 22.4999 101.1 22.0999C100.9 21.6999 100.7 21.2999 100.4 20.9999C100.1 20.6999 99.7 20.3999 99.3 20.2999C98.8 20.0999 98.3 19.9999 97.8 19.9999H96.6Z" fill="#1E1E1C"/>
<path d="M110.7 29.5999C110 29.5999 109.3 29.3999 108.6 29.1999C108.1 28.9999 107.5 28.6999 107.1 28.2999C106.7 27.7999 106.4 27.2999 106.1 26.6999C105.9 26.0999 105.8 25.3999 105.8 24.6999V17.3999H108.7V24.6999C108.7 25.1999 108.9 25.7999 109.2 26.1999C109.4 26.3999 109.6 26.4999 109.9 26.5999C110.1 26.6999 110.4 26.7999 110.6 26.6999C110.9 26.7999 111.1 26.6999 111.4 26.5999C111.6 26.4999 111.9 26.3999 112 26.1999C112.2 25.9999 112.4 25.7999 112.5 25.4999C112.6 25.1999 112.6 24.8999 112.6 24.6999V17.3999H115.5V24.6999C115.5 25.3999 115.4 26.0999 115.1 26.6999C114.9 27.2999 114.6 27.7999 114.2 28.2999C113.7 28.6999 113.2 28.9999 112.6 29.1999C112 29.3999 111.3 29.5999 110.7 29.5999Z" fill="#1E1E1C"/>
<path d="M123.3 29.5002C122.4 29.6002 121.6 29.4002 120.8 29.1002C120.1 28.8002 119.4 28.3002 118.8 27.7002C118.3 27.2002 117.9 26.5002 117.6 25.8002C117.3 25.0002 117.1 24.2002 117.2 23.4002C117.2 22.5002 117.3 21.7002 117.6 20.9002C117.9 20.2002 118.3 19.5002 118.9 19.0002C119.5 18.4002 120.1 18.0002 120.8 17.7002C122.2 17.2002 123.6 17.1002 125 17.4002C125.5 17.6002 126 17.8002 126.4 18.0002C126.9 18.3002 127.3 18.6002 127.7 19.0002C128.1 19.3002 128.4 19.7002 128.6 20.2002L126.1 21.8002C125.9 21.3002 125.5 20.8002 125 20.5002C124.5 20.2002 123.9 20.0002 123.3 20.0002C122.7 20.0002 122 20.2002 121.5 20.6002C121 20.9002 120.6 21.5002 120.3 22.1002C120.2 22.5002 120.1 22.9002 120.1 23.4002C120.1 23.8002 120.2 24.3002 120.3 24.7002C120.5 25.1002 120.7 25.4002 121 25.7002C121.3 26.0002 121.6 26.3002 122 26.5002C122.4 26.6002 122.8 26.7002 123.3 26.7002C123.9 26.7002 124.6 26.5002 125.1 26.2002C125.6 25.8002 126 25.3002 126.2 24.8002L128.8 26.2002C128.6 26.7002 128.3 27.1002 127.9 27.5002C127.5 28.0002 127.1 28.3002 126.6 28.6002C126.2 28.9002 125.6 29.2002 125.1 29.3002C124.5 29.5002 123.9 29.6002 123.3 29.5002Z" fill="#1E1E1C"/>
<path d="M133.2 19.9999H129.9V17.3999H139.2V19.9999H135.9V29.3999H133.2V19.9999Z" fill="#1E1E1C"/>
<path d="M62.1999 46.0001C61.5999 46.0001 60.9999 46.0001 60.3999 45.8001C59.8999 45.7001 59.3999 45.5001 58.9999 45.3001C58.5999 45.1001 58.1999 44.9001 57.7999 44.6001C57.4999 44.3001 57.1999 43.9001 56.8999 43.6001L59.2999 41.6001C59.5999 42.1001 60.0999 42.6001 60.5999 42.9001C61.0999 43.2001 61.6999 43.3001 62.2999 43.3001C62.6999 43.4001 63.0999 43.2001 63.3999 43.0001C63.5999 42.9001 63.6999 42.8001 63.6999 42.7001C63.7999 42.5001 63.7999 42.4001 63.7999 42.2001C63.7999 42.0001 63.7999 41.9001 63.6999 41.7001C63.4999 41.6001 63.3999 41.4001 63.1999 41.4001C62.9999 41.2001 62.6999 41.2001 62.3999 41.1001C62.0999 41.0001 61.7999 40.9001 61.2999 40.8001C60.8999 40.7001 60.3999 40.6001 59.9999 40.4001C59.5999 40.3001 59.1999 40.1001 58.7999 39.8001C58.3999 39.6001 58.0999 39.2001 57.8999 38.8001C57.6999 38.4001 57.4999 37.8001 57.5999 37.3001C57.5999 36.8001 57.6999 36.3001 57.8999 35.8001C58.0999 35.4001 58.3999 35.0001 58.7999 34.7001C59.1999 34.3001 59.6999 34.1001 60.1999 33.9001C60.6999 33.7001 61.2999 33.6001 61.8999 33.6001C62.3999 33.6001 62.8999 33.7001 63.3999 33.8001C63.8999 33.8001 64.2999 34.0001 64.6999 34.2001C65.0999 34.3001 65.3999 34.6001 65.6999 34.8001C66.0999 35.1001 66.3999 35.4001 66.6999 35.7001L64.3999 37.5001C64.1999 37.1001 63.7999 36.8001 63.3999 36.5001C62.8999 36.2001 62.3999 36.1001 61.8999 36.1001C61.4999 36.1001 61.0999 36.2001 60.7999 36.5001C60.6999 36.5001 60.5999 36.7001 60.4999 36.8001C60.4999 36.9001 60.3999 37.1001 60.3999 37.2001C60.3999 37.3001 60.4999 37.4001 60.4999 37.4001C60.4999 37.5001 60.5999 37.6001 60.5999 37.7001C60.7999 37.8001 60.8999 37.9001 61.0999 38.0001C61.3999 38.1001 61.5999 38.1001 61.8999 38.2001L62.8999 38.4001C63.2999 38.5001 63.7999 38.6001 64.1999 38.8001C64.6999 38.9001 65.0999 39.2001 65.4999 39.4001C65.8999 39.7001 66.1999 40.0001 66.3999 40.5001C66.6999 40.9001 66.7999 41.5001 66.7999 42.0001C66.7999 42.6001 66.6999 43.1001 66.3999 43.6001C66.1999 44.1001 65.8999 44.5001 65.4999 44.9001C65.0999 45.2001 64.5999 45.5001 63.9999 45.7001C63.4999 45.9001 62.7999 46.0001 62.1999 46.0001Z" fill="#1E1E1C"/>
<path d="M74.1 46.0002C73.2 46.0002 72.4 45.9002 71.6 45.5002C70.9 45.2002 70.2 44.8002 69.7 44.2002C69.1 43.6002 68.7 43.0002 68.4 42.2002C68.1 41.5002 68 40.7002 68 39.8002C68 39.0002 68.1 38.2002 68.4 37.4002C68.7 36.7002 69.2 36.0002 69.7 35.4002C70.3 34.9002 70.9 34.5002 71.7 34.2002C73 33.6002 74.4 33.6002 75.8 33.9002C76.3 34.0002 76.8 34.2002 77.3 34.5002C77.7 34.8002 78.1 35.1002 78.5 35.4002C78.9 35.8002 79.2 36.2002 79.5 36.7002L76.9 38.3002C76.7 37.7002 76.3 37.3002 75.8 37.0002C75.3 36.7002 74.7 36.5002 74.1 36.5002C73.7 36.5002 73.2 36.6002 72.8 36.8002C72.4 36.9002 72.1 37.2002 71.8 37.5002C71.5 37.8002 71.3 38.2002 71.1 38.6002C71 39.0002 70.9 39.4002 70.9 39.9002C70.9 40.3002 71 40.8002 71.1 41.2002C71.3 41.6002 71.5 41.9002 71.8 42.2002C72.1 42.5002 72.4 42.8002 72.8 42.9002C73.2 43.1002 73.7 43.2002 74.1 43.2002C74.7 43.2002 75.4 43.0002 75.9 42.6002C76.4 42.3002 76.8 41.8002 77 41.2002L79.7 42.7002C79.4 43.1002 79.1 43.6002 78.7 44.0002C78.3 44.4002 77.9 44.8002 77.5 45.1002C77 45.4002 76.5 45.6002 75.9 45.8002C75.3 46.0002 74.7 46.0002 74.1 46.0002Z" fill="#1E1E1C"/>
<path d="M87.8 41.1998H83.9V45.7998H81V33.7998H83.9V38.3998H87.8V33.7998H90.7V45.7998H87.8V41.1998Z" fill="#1E1E1C"/>
<path d="M98.5999 46.0002C97.6999 46.0002 96.8999 45.8002 96.1999 45.5002C95.3999 45.2002 94.7999 44.8002 94.1999 44.2002C93.6999 43.6002 93.2 43.0002 92.9 42.2002C92.3 40.7002 92.3 39.0002 92.9 37.4002C93.5 35.9002 94.6999 34.8002 96.1999 34.1002C96.8999 33.8002 97.6999 33.7002 98.5999 33.7002C99.3999 33.7002 100.2 33.8002 101 34.1002C101.7 34.5002 102.4 34.9002 102.9 35.5002C103.5 36.0002 103.9 36.7002 104.2 37.4002C104.7 38.6002 104.8 39.8002 104.6 41.0002C104.4 42.2002 103.8 43.3002 102.9 44.2002C102.4 44.8002 101.7 45.2002 101 45.5002C100.2 45.8002 99.3999 46.0002 98.5999 46.0002ZM98.5999 43.2002C98.9999 43.2002 99.5 43.1002 99.9 42.9002C100.3 42.7002 100.6 42.5002 100.9 42.2002C101.5 41.5002 101.8 40.7002 101.8 39.8002C101.8 39.4002 101.8 38.9002 101.6 38.5002C101.4 38.1002 101.2 37.8002 100.9 37.5002C100.4 37.0002 99.7999 36.7002 99.1999 36.5002C98.4999 36.4002 97.9 36.5002 97.3 36.7002C96.9 36.9002 96.4999 37.1002 96.1999 37.5002C95.7999 37.9002 95.5 38.5002 95.4 39.2002C95.3 39.8002 95.2999 40.5002 95.5999 41.1002C95.6999 41.5002 95.8999 41.9002 96.1999 42.2002C96.4999 42.5002 96.9 42.7002 97.3 42.9002C97.7 43.1002 98.0999 43.2002 98.5999 43.2002Z" fill="#1E1E1C"/>
<path d="M112.1 46.0002C111.3 46.0002 110.4 45.8002 109.7 45.5002C109 45.2002 108.3 44.8002 107.7 44.2002C107.2 43.6002 106.7 43.0002 106.4 42.2002C105.8 40.7002 105.8 39.0002 106.4 37.4002C106.7 36.7002 107.2 36.0002 107.7 35.5002C108.3 34.9002 109 34.5002 109.7 34.1002C110.4 33.8002 111.3 33.7002 112.1 33.7002C112.9 33.7002 113.7 33.8002 114.5 34.1002C115.2 34.5002 115.9 34.9002 116.4 35.5002C117 36.0002 117.4 36.7002 117.7 37.4002C118.2 38.6002 118.3 39.8002 118.1 41.0002C117.9 42.2002 117.3 43.3002 116.4 44.2002C115.9 44.8002 115.2 45.2002 114.5 45.5002C113.7 45.9002 112.9 46.0002 112.1 46.0002ZM112.1 43.2002C112.5 43.2002 113 43.1002 113.4 42.9002C113.8 42.7002 114.1 42.5002 114.4 42.2002C114.7 41.9002 114.9 41.5002 115.1 41.1002C115.3 40.7002 115.3 40.3002 115.3 39.8002C115.3 39.4002 115.3 38.9002 115.1 38.5002C114.9 38.1002 114.7 37.8002 114.4 37.5002C113.9 37.0002 113.4 36.7002 112.7 36.5002C112.1 36.4002 111.4 36.5002 110.8 36.7002C110.4 36.9002 110 37.1002 109.7 37.5002C109.2 38.1002 108.8 38.9002 108.8 39.8002C108.8 40.3002 108.9 40.7002 109.1 41.1002C109.2 41.5002 109.4 41.9002 109.7 42.2002C110 42.5002 110.4 42.7002 110.8 42.9002C111.2 43.1002 111.6 43.2002 112.1 43.2002Z" fill="#1E1E1C"/>
<path d="M120 33.7998H122.8V43.0998H128.1V45.7998H120V33.7998Z" fill="#1E1E1C"/>
</svg>
